<?xml version="1.0" encoding="UTF-8" standalone="no"?>
<svg width="80px" height="42px" viewBox="0 0 80 42" version="1.1" xmlns="http://www.w3.org/2000/svg" xmlns:xlink="http://www.w3.org/1999/xlink" xmlns:sketch="http://www.bohemiancoding.com/sketch/ns">
    <!-- Generator: Sketch 3.3.3 (12072) - http://www.bohemiancoding.com/sketch -->
    <title>motel__logo-fill</title>
    <desc>Created with Sketch.</desc>
    <defs></defs>
    <g id="Page-1" stroke="none" stroke-width="1" fill="none" fill-rule="evenodd" sketch:type="MSPage">
        <g id="Estimate" sketch:type="MSArtboardGroup" transform="translate(-41.000000, -40.000000)">
            <g id="motel__logo-fill" sketch:type="MSLayerGroup" transform="translate(41.000000, 40.000000)">
                <g id="Page-1" sketch:type="MSShapeGroup">
                    <g id="logo">
                        <path d="M0.374522293,41.0884076 L79.6759236,41.0884076 L79.6759236,0.324076433 L0.374522293,0.324076433 L0.374522293,41.0884076 L0.374522293,41.0884076 Z" id="Path-2" fill="#FFFFFF"></path>
                        <path d="M3.87057325,4.03006369 L76.1788535,4.03006369 L76.1788535,37.3824204 L3.87057325,37.3824204 L3.87057325,4.03006369 L3.87057325,4.03006369 Z M29.4858599,9.03322293 C27.651465,9.03322293 26.150828,10.5343694 26.150828,12.3682548 L26.150828,29.0444331 C26.150828,30.878828 27.651465,32.3799745 29.4858599,32.3799745 L32.8208917,32.3799745 C34.6552866,32.3799745 36.1564331,30.878828 36.1564331,29.0444331 L36.1564331,12.3682548 C36.1564331,10.5343694 34.6552866,9.03322293 32.8208917,9.03322293 L29.4858599,9.03322293 L29.4858599,9.03322293 Z M15.844586,25.2758217 L11.4089172,9.03327389 L8.87388535,9.03327389 L8.87388535,32.3795159 L10.5416561,32.3795159 L10.5416561,11.7349299 L15.3110828,29.0444841 L16.3780892,29.0444841 L21.1475159,11.7349299 L21.1475159,32.3795159 L22.8152866,32.3795159 L22.8152866,9.03327389 L20.2802548,9.03327389 L15.844586,25.2758217 L15.844586,25.2758217 Z M38.6573248,10.7008408 L42.8264968,10.7008408 L42.8264968,32.3798217 L44.4942675,32.3798217 L44.4942675,10.7008408 L48.6629299,10.7008408 L48.6629299,9.03307006 L38.6573248,9.03307006 L38.6573248,10.7008408 L38.6573248,10.7008408 Z M51.1648408,32.3797197 L59.5026752,32.3797197 L59.5026752,30.711949 L52.8326115,30.711949 L52.8326115,20.8734777 L57.835414,20.8734777 L57.835414,19.205707 L52.8326115,19.205707 L52.8326115,10.7007389 L59.5026752,10.7007389 L59.5026752,9.03296815 L51.1648408,9.03296815 L51.1648408,32.3797197 L51.1648408,32.3797197 Z M64.5054777,30.7121019 L64.5054777,9.03312102 L62.837707,9.03312102 L62.837707,32.3798726 L71.176051,32.3798726 L71.176051,30.7121019 L64.5054777,30.7121019 L64.5054777,30.7121019 Z M34.4886624,29.0444331 C34.4886624,29.9784459 33.7549045,30.7122038 32.8208917,30.7122038 L29.4858599,30.7122038 C28.5854777,30.7122038 27.8180892,29.9784459 27.8180892,29.0444331 L27.8180892,12.3682548 C27.8180892,11.4347516 28.5854777,10.7009936 29.4858599,10.7009936 L32.8208917,10.7009936 C33.7549045,10.7009936 34.4886624,11.4347516 34.4886624,12.3682548 L34.4886624,29.0444331 L34.4886624,29.0444331 Z M0.374522293,41.0884076 L79.6759236,41.0884076 L79.6759236,0.324076433 L0.374522293,0.324076433 L0.374522293,41.0884076 L0.374522293,41.0884076 Z M77.8466242,39.0501911 L2.20280255,39.0501911 L2.20280255,2.36229299 L77.8466242,2.36229299 L77.8466242,39.0501911 L77.8466242,39.0501911 Z" id="Shape" fill="#15192A"></path>
                    </g>
                </g>
            </g>
        </g>
    </g>
</svg>